<?xml version="1.0" encoding="UTF-8"?>
<svg width="44px" height="44px" viewBox="0 0 44 44" version="1.1" xmlns="http://www.w3.org/2000/svg" xmlns:xlink="http://www.w3.org/1999/xlink">
    <title>Group</title>
    <g id="Page-1" stroke="none" stroke-width="1" fill="none" fill-rule="evenodd" stroke-linecap="round">
        <g id="Artboard" transform="translate(-1010, -688)">
            <g id="Group" transform="translate(1011, 689)">
                <g id="Path" stroke="#FFFFFF">
                    <path d="M18.1966019,19.7257282 L15.8446602,18.0728155 C15.5485437,17.8665049 15.1990291,17.75 14.8398058,17.7378641 L2.93203883,17.3737864 C2.58737864,17.3640777 2.25242718,17.2524272 1.9684466,17.0533981 L0.531553398,16.0436893"></path>
                    <path d="M19.7305825,23.815534 L18.0849515,26.1747573 C17.8786408,26.4708738 17.7645631,26.8203883 17.7524272,27.1820388 L17.4296117,39.0898058 C17.4199029,39.434466 17.3106796,39.7694175 17.1116505,40.0533981 L16.1067961,41.4927184"></path>
                    <path d="M18.9223301,23.2839806 L16.6286408,25.0169903 C16.3398058,25.2354369 16.1237864,25.5315534 16.0024272,25.8713592 L12.0072816,37.0946602 C11.8907767,37.4199029 11.6820388,37.7038835 11.407767,37.9126214 L10.0072816,38.9708738"></path>
                    <path d="M18.3203883,22.526699 L15.6019417,23.4635922 C15.2597087,23.5800971 14.961165,23.7961165 14.7402913,24.0825243 L7.46601942,33.5169903 C7.25485437,33.7912621 6.9684466,33.9975728 6.6407767,34.1092233 L4.98058252,34.6820388"></path>
                    <path d="M17.9805825,21.6213592 L15.1067961,21.6699029 C14.7451456,21.6771845 14.3956311,21.788835 14.0970874,21.9902913 L4.25970874,28.7087379 C3.97330097,28.9029126 3.63834951,29.0097087 3.29368932,29.0169903 L1.53883495,29.0461165"></path>
                    <path d="M17.9393204,20.6553398 L15.1893204,19.8131068 C14.8446602,19.7063107 14.4757282,19.7038835 14.1286408,19.8058252 L2.69417476,23.1456311 C2.36165049,23.2427184 2.00970874,23.2402913 1.67961165,23.1383495 L0,22.6237864"></path>
                    <path d="M18.7330097,18.9199029 L17.0072816,16.618932 C16.7912621,16.3300971 16.4951456,16.1116505 16.1553398,15.9902913 L4.94660194,11.9563107 C4.62135922,11.8398058 4.33737864,11.6286408 4.13106796,11.3519417 L3.0776699,9.94660194"></path>
                    <path d="M19.4902913,18.3203883 L18.5631068,15.5995146 C18.4466019,15.2572816 18.2330097,14.9587379 17.9490291,14.7378641 L8.54126214,7.42961165 C8.26941748,7.2184466 8.0631068,6.92961165 7.95145631,6.60436893 L7.38592233,4.94174757"></path>
                    <path d="M20.3956311,17.9830097 L20.3567961,15.1067961 C20.3519417,14.7451456 20.2402913,14.3956311 20.038835,14.0970874 L13.3567961,4.23543689 C13.1626214,3.94902913 13.0582524,3.61165049 13.0533981,3.26699029 L13.0291262,1.51213592"></path>
                    <path d="M21.3616505,17.9441748 L22.2160194,15.1990291 C22.3228155,14.8543689 22.3276699,14.4854369 22.2281553,14.1383495 L18.9296117,2.69174757 C18.8349515,2.3592233 18.8373786,2.00728155 18.9393204,1.67718447 L19.461165,0"></path>
                    <path d="M22.2936893,18.2063107 L23.9563107,15.8592233 C24.1650485,15.565534 24.2815534,15.2160194 24.2936893,14.8543689 L24.7014563,2.94902913 C24.7135922,2.60436893 24.8252427,2.26941748 25.026699,1.98786408 L26.0412621,0.555825243"></path>
                    <path d="M23.0970874,18.7451456 L25.4029126,17.0291262 C25.6917476,16.8131068 25.9126214,16.5194175 26.0364078,16.1796117 L30.1116505,4.98543689 C30.2305825,4.66019417 30.4393204,4.37864078 30.7184466,4.1723301 L32.1262136,3.12378641"></path>
                    <path d="M23.6941748,19.5048544 L26.4199029,18.5873786 C26.7621359,18.473301 27.0631068,18.2597087 27.2839806,17.9757282 L34.6262136,8.59466019 C34.8398058,8.32281553 35.1262136,8.11893204 35.4538835,8.00728155 L37.118932,7.44660194"></path>
                    <path d="M24.026699,20.4126214 L26.9029126,20.3834951 C27.2645631,20.381068 27.6165049,20.2718447 27.9150485,20.0703883 L37.8009709,13.4223301 C38.0873786,13.2305825 38.4247573,13.1237864 38.7694175,13.1213592 L40.5242718,13.1043689"></path>
                    <path d="M24.0631068,21.3786408 L26.8058252,22.2427184 C27.1504854,22.3519417 27.5194175,22.3567961 27.8665049,22.2572816 L39.3252427,18.9975728 C39.657767,18.9029126 40.0097087,18.907767 40.3398058,19.0121359 L42.0145631,19.538835"></path>
                    <path d="M23.7961165,22.3082524 L26.1359223,23.9781553 C26.4296117,24.1868932 26.7791262,24.3058252 27.1383495,24.3203883 L39.0436893,24.7694175 C39.3883495,24.7815534 39.723301,24.8956311 40.0048544,25.0970874 L41.434466,26.1165049"></path>
                    <path d="M23.2548544,23.1092233 L24.9635922,25.4223301 C25.1771845,25.7135922 25.473301,25.934466 25.8106796,26.0582524 L36.9902913,30.1723301 C37.315534,30.2912621 37.5970874,30.5024272 37.8009709,30.7815534 L38.8446602,32.1941748"></path>
                    <path d="M22.4927184,23.7038835 L23.4004854,26.4320388 C23.5145631,26.7742718 23.7257282,27.0752427 24.0097087,27.2985437 L33.3665049,34.6723301 C33.6383495,34.8859223 33.8398058,35.1747573 33.9490291,35.5024272 L34.5048544,37.1674757"></path>
                    <path d="M21.5849515,24.0339806 L21.6043689,26.9101942 C21.6067961,27.2718447 21.7135922,27.6237864 21.9150485,27.9223301 L28.526699,37.8325243 C28.7184466,38.118932 28.8228155,38.4563107 28.8252427,38.8033981 L28.8373786,40.5582524"></path>
                </g>
                <path d="M20.6626214,24.0703883 L19.8300971,26.8228155 C19.7257282,27.1674757 19.723301,27.5364078 19.8276699,27.8834951 L23.2087379,39.3058252 C23.3058252,39.6383495 23.3058252,39.9902913 23.2063107,40.3203883 L22.6966019,42" id="Path" stroke="#FF9B71"></path>
            </g>
        </g>
    </g>
</svg>