<?xml version="1.0" encoding="UTF-8"?>
<svg width="42px" height="42px" viewBox="0 0 42 42" version="1.1" xmlns="http://www.w3.org/2000/svg" xmlns:xlink="http://www.w3.org/1999/xlink">
    <title>Group</title>
    <g id="Page-1" stroke="none" stroke-width="1" fill="none" fill-rule="evenodd">
        <g id="Artboard" transform="translate(-1011, -1147)" fill-rule="nonzero">
            <g id="Group" transform="translate(1011, 1147)">
                <g fill="#FFFFFF" id="Path">
                    <path d="M29.0938949,39.6275058 C28.8938965,39.7426056 28.7974268,39.9117318 28.8986024,40.1301864 C28.999778,40.3509901 29.1950705,40.4402511 29.4280097,40.3462921 C29.778595,40.2030047 30.1268274,40.0503213 30.4656481,39.8811951 C32.4985723,38.8711358 34.3314981,37.5815485 36.0256016,35.8503539 C37.0867692,34.8379457 38.0585257,33.5694992 38.9149891,32.2047447 C38.980871,32.1013898 39.0491057,31.9956859 39.0843995,31.8805861 C39.1408696,31.6926681 39.0867524,31.5211929 38.9079304,31.420187 C38.7455788,31.328577 38.5808743,31.3403218 38.4491107,31.4789114 C38.3573468,31.5752193 38.2820533,31.6856212 38.2091127,31.798372 C37.3055909,33.2382937 36.251482,34.5607666 35.0138453,35.7282072 C33.345624,37.2973225 31.4750514,38.572816 29.3691867,39.4936142 C29.2727169,39.5358958 29.180953,39.5781773 29.0938949,39.6275058 Z"></path>
                    <path d="M34.2891455,33.3322527 C34.3573802,33.2594345 34.4303208,33.1913142 34.5620844,33.0574226 C35.8303091,31.6268968 36.882065,29.9614735 37.6514703,28.1198771 C37.7549989,27.8685367 37.7761751,27.6242433 37.4773541,27.5020966 C37.1832389,27.3799499 37.0114757,27.558472 36.9055942,27.8074634 C36.3526576,29.1017486 35.6750163,30.3255646 34.8161999,31.4436767 C34.4632617,31.9017269 34.0891472,32.3433342 33.7197385,32.7849415 C33.4867993,33.0621205 33.4491525,33.2899711 33.6515038,33.4497014 C33.8985605,33.6470153 34.1032647,33.5295666 34.2891455,33.3322527 Z"></path>
                    <path d="M31.6985789,35.6436441 C31.9432828,35.46982 32.1809278,35.2865999 32.4232788,35.1057288 C32.6044537,34.9225088 32.6703355,34.715799 32.5103369,34.4996933 C32.3409265,34.2718427 32.1056344,34.3211712 31.9150477,34.4621097 C31.3526995,34.8825762 30.7950571,35.3077407 30.1927092,35.6741808 C27.7833176,37.1375922 25.1786335,37.9808743 22.3598336,38.1640943 C21.3786653,38.2275167 20.397497,38.2228187 19.4210346,38.103021 C19.0516259,38.0583905 18.8633922,38.1758392 18.8351572,38.4365754 C18.8069221,38.6926137 18.9998617,38.8711358 19.3622116,38.9063704 C23.8845267,39.3550247 27.9974334,38.2721472 31.6985789,35.6436441 Z"></path>
                    <path d="M40.2749778,29.5973824 C40.5596813,29.0406753 40.4420352,29.2473851 40.6608569,28.6648393 C41.5761434,26.2383481 42.0137867,23.7272937 41.9996692,21.1410722 C41.9902575,19.6447751 41.8114355,18.1625719 41.467909,16.7062073 C41.4537914,16.640436 41.437321,16.5746647 41.4184976,16.5112424 C41.3432041,16.2599021 41.1737938,16.1354064 40.9126195,16.1964798 C40.6490923,16.2575531 40.6067397,16.4666119 40.6396806,16.6944625 C40.6749744,16.9364069 40.7314445,17.1760024 40.7808559,17.4155978 C41.5008499,21.0048317 41.2396756,24.5282942 40.0420385,27.9859855 C39.8090993,28.6601413 39.8843928,28.5332967 39.5738072,29.1745669 C39.4773374,29.3765787 39.4208673,29.5738926 39.5996893,29.7618106 C39.8090993,29.9802653 40.1126262,29.914494 40.2749778,29.5973824 Z"></path>
                    <path d="M22.8092416,28.5873231 C22.7339481,28.6061149 22.6563017,28.6202087 22.585714,28.6507454 C22.3833628,28.7400065 22.2515992,28.8856429 22.3057164,29.1205404 C22.3621865,29.3624849 22.555126,29.440001 22.7692419,29.4024174 C23.0868863,29.346042 23.4021778,29.2685259 23.7080576,29.1675199 C24.7880485,28.8057778 25.7574522,28.2514197 26.5574455,27.5349823 C26.6774445,27.4151846 26.7503851,27.3470643 26.8186198,27.2742461 C26.9833243,27.0957239 27.0256769,26.900759 26.8397961,26.712841 C26.6562682,26.524923 26.4562699,26.5695535 26.272742,26.717539 C26.002156,26.9312957 25.7433347,27.1614952 25.4656899,27.3658561 C24.6633437,27.9530998 23.7692335,28.3406807 22.8092416,28.5873231 Z"></path>
                    <path d="M34.1056176,16.3350693 C33.9197368,16.5112424 33.9667953,16.7179522 34.03503,16.924662 C34.3173806,17.7843869 34.5079672,18.6652525 34.6138487,19.562561 C34.9714927,22.5974367 34.4514971,25.4584883 32.8891572,28.1081322 C32.8162167,28.2326279 32.7362173,28.3547746 32.6726884,28.4839682 C32.5644541,28.7071208 32.6091596,28.9044347 32.8303342,29.0265814 C33.0373913,29.1416812 33.225625,29.0829568 33.3573886,28.8926899 C33.6515038,28.4722233 33.8915018,28.0188711 34.1126764,27.558472 C35.8044269,24.0350095 35.9361905,20.405843 34.8209058,16.6991604 C34.6820834,16.2411103 34.364439,16.0860779 34.1056176,16.3350693 Z"></path>
                    <path d="M32.475043,19.6024936 C32.3597499,18.430355 32.0538701,17.302847 31.6162267,16.2129226 C31.5668153,16.0884269 31.5221098,15.9592333 31.3997579,15.8840661 C31.2562297,15.794805 31.1032898,15.7807112 30.9621145,15.888764 C30.7785866,16.0297025 30.738587,16.2105736 30.827998,16.4243303 C31.1103486,17.0937882 31.3315232,17.7820379 31.4726985,18.4961263 C32.1621045,21.9514686 31.5221098,25.1225849 29.2538935,27.8497449 C27.3644976,30.1235528 24.8915771,31.3685095 21.9104256,31.5517296 C20.8539638,31.6175009 19.8163254,31.514146 18.7880987,31.2745505 C18.7551578,31.2675036 18.7222169,31.2628057 18.689276,31.2534098 C18.421043,31.1899874 18.1645745,31.1711956 18.0633989,31.5047501 C17.9833996,31.7678353 18.1245749,31.9440084 18.510454,32.0403164 C19.6869147,32.3386362 20.8845518,32.4466891 22.0963064,32.359777 C24.3386405,32.1976977 26.3480355,31.4107911 28.1409617,30.0624794 C28.1950788,30.0225468 28.249196,29.9826143 28.2986074,29.9379837 C28.5856638,29.6584557 28.9362491,29.4493969 29.2044822,29.1416812 C31.7479903,26.4591517 32.8373929,23.2786395 32.475043,19.6024936 Z"></path>
                    <path d="M8.77406489,37.2996715 C8.5999487,37.5251731 8.71759477,37.7154401 8.96935737,37.9456397 C9.75288023,38.5352324 10.6540492,39.1107313 11.6046294,39.606365 C14.4610761,41.0956152 17.4939919,41.8942667 20.7198473,41.9905747 C22.675125,42.049299 24.595109,41.8331933 26.4868578,41.3540024 C26.6162685,41.3211168 26.7456792,41.2835332 26.8680311,41.2318557 C27.0633236,41.1472926 27.1762638,40.9993072 27.1174408,40.7808525 C27.0562648,40.5530019 26.8892074,40.4613919 26.660974,40.4825327 C26.571563,40.4919286 26.4845049,40.5107204 26.3974468,40.5342101 C22.5692436,41.5348735 18.7739812,41.396284 15.0163656,40.1771659 C13.1034404,39.5570365 11.3340435,38.6456342 9.69405719,37.4805426 C9.59523449,37.4100733 9.49170594,37.3419531 9.39288324,37.2691348 C9.17641446,37.1117535 8.95288692,37.067123 8.77406489,37.2996715 Z"></path>
                    <path d="M30.2162384,32.3409852 C30.7785866,31.9158207 31.2821118,31.4295829 31.7691666,30.9222043 C31.9479886,30.7366353 32.0021058,30.5181806 31.8209309,30.3255646 C31.6209325,30.1141569 31.3950521,30.1869751 31.2021125,30.3725441 C31.098584,30.4712011 30.9974083,30.576905 30.8938798,30.6802599 C27.8986107,33.494332 24.3362876,34.6805643 20.2563217,34.3117753 C17.0445839,34.0228513 14.2328427,32.7708476 11.7858044,30.6849578 C11.5316889,30.4688521 11.2540441,30.4453624 11.1011042,30.6238845 C10.9387527,30.8141514 10.9928699,31.0607938 11.2540441,31.2862954 C14.0822558,33.7033907 17.3434049,35.0352596 21.0727855,35.1738491 C24.4492278,35.3006938 27.5080258,34.3822445 30.2162384,32.3409852 Z"></path>
                    <path d="M38.2349948,16.17299 C37.5479418,13.9555576 36.4655979,11.9518819 34.9903161,10.154916 C34.6491425,9.73914738 34.2726751,9.36331138 33.8938547,8.9851264 C33.6256216,8.71734324 33.3644474,8.44251316 33.0868026,8.18412591 C32.8515105,7.96332225 32.5550424,7.95157738 32.4068083,8.13949538 C32.2632801,8.32271544 32.3244561,8.57640474 32.5503365,8.78311454 C35.8726617,11.8179903 37.7573518,15.5669545 38.1314663,20.0558458 C38.2702887,21.730665 38.1549955,23.3937393 37.7644105,25.0309749 C37.719705,25.2165439 37.6773524,25.4068109 37.8255865,25.5688902 C37.931468,25.6863389 38.0679374,25.7239225 38.2208773,25.6980838 C38.3996993,25.6675471 38.4749928,25.5336555 38.5173454,25.3739252 C38.7267554,24.5752737 38.8538132,23.7625284 38.9244008,22.9380381 C39.1243992,20.6430895 38.919695,18.3833755 38.2349948,16.17299 Z"></path>
                    <path d="M27.6421423,24.8618487 C27.5644959,24.9839954 27.4750849,25.0990952 27.4092031,25.2282888 C27.3103804,25.4209047 27.2868512,25.6252656 27.4844966,25.7685531 C27.6774361,25.9094916 27.8703757,25.8578141 28.0233156,25.6863389 C28.4986057,25.1554706 28.8350735,24.5353412 29.0868361,23.8823261 C30.4044721,20.4457756 29.8797706,17.2887532 27.6068485,14.4065608 C27.1056762,13.7699886 26.5080341,13.2438181 25.8586278,12.7669762 C25.644512,12.6095949 25.4209844,12.503891 25.2092215,12.7528824 C24.9903998,13.0089206 25.1574572,13.2015366 25.3715731,13.4058974 C26.1809781,14.009584 26.9080308,14.7401152 27.4986141,15.6021891 C29.4091863,18.3927714 29.4656565,22.010193 27.6421423,24.8618487 Z"></path>
                    <path d="M27.8939049,8.49419061 C27.7739059,8.66331682 27.8186114,8.85123482 28.039786,9.06264257 C28.4562531,9.3515665 28.9315433,9.64283941 29.3715396,9.98344079 C30.9715262,11.2213506 32.2609272,12.7176477 33.225625,14.4958218 C33.2985656,14.6320624 33.3715061,14.7730009 33.4562113,14.9021945 C33.5879749,15.1018574 33.7715028,15.14179 33.9809128,15.0384351 C34.1879699,14.9350802 34.2256166,14.7495111 34.1526761,14.5545462 C34.0750296,14.3478364 33.9715011,14.1481735 33.8609138,13.9532086 C32.5903362,11.6958436 30.8562331,9.88243486 28.6609573,8.50593549 C28.5856638,8.45895599 28.5080174,8.41197649 28.4280181,8.37439289 C28.2233139,8.28513183 28.0327273,8.29922569 27.8939049,8.49419061 Z"></path>
                    <path d="M16.6751752,31.0349551 C16.7834096,30.856433 16.7339983,30.6826088 16.5834113,30.5581132 C16.4657652,30.4594562 16.3269429,30.38194 16.1881205,30.3091218 C14.0187269,29.1792648 12.3740348,27.5208884 11.2116915,25.3786232 C11.1599273,25.2799662 11.108163,25.1813093 11.04934,25.0873503 C10.9199293,24.8829895 10.7364014,24.7819835 10.5128739,24.9017813 C10.2940522,25.01923 10.2469937,25.2353357 10.3481694,25.4514414 C10.5011093,25.770902 10.6705196,26.0880137 10.8587533,26.3886825 C11.3905136,27.2390114 11.9810969,28.0494078 12.548151,28.5849741 C13.6657887,29.6960393 14.7269563,30.4993888 15.9410637,31.0913305 C16.0304748,31.135961 16.1222387,31.1805915 16.2163556,31.2111282 C16.4092951,31.2698526 16.5716467,31.2064303 16.6751752,31.0349551 Z"></path>
                    <path d="M17.5269328,38.2439595 C17.5975205,38.0161089 17.4939919,37.8540296 17.2939936,37.7483257 C17.2257589,37.7130911 17.1457595,37.6966483 17.0704661,37.6755075 C14.1151967,36.8322255 11.498748,35.3993507 9.25406087,33.2829242 C8.12230564,32.2141406 7.12937277,31.042002 6.27761519,29.7430188 C6.17879249,29.5926844 6.08702855,29.4353031 5.87761854,29.4235582 C5.72232572,29.4165113 5.58585627,29.4634908 5.50585694,29.6020803 C5.41644592,29.7618106 5.4352693,29.9215409 5.53173908,30.0765733 C6.00938214,30.8282453 6.53408363,31.5470316 7.11525524,32.2258854 C7.47054638,32.639305 7.81407292,33.0644695 8.02348293,33.2453406 C10.6611079,35.8268642 13.5081429,37.5275221 16.8163505,38.4412734 C16.9034086,38.4647631 16.9881138,38.4929508 17.0751719,38.5023467 C17.2892878,38.5258365 17.461051,38.4577162 17.5269328,38.2439595 Z"></path>
                    <path d="M21.6704276,26.9524365 C24.6939317,26.0645239 26.331565,23.419578 26.4845049,20.2320189 C26.5974452,17.8830438 25.9056862,16.4384242 24.3715814,14.6602501 C23.8115861,14.009584 23.1598269,13.4834136 22.4304212,13.0465042 C22.2092466,12.9149616 21.9645427,12.8914719 21.8186616,13.1475102 C21.6821922,13.3847566 21.7645444,13.5985134 21.9998366,13.7464988 C22.046895,13.7746865 22.0939534,13.8052232 22.1410119,13.8357599 C24.1857006,15.1934674 25.3362792,16.4924506 25.6115711,18.9212908 C25.8586278,21.0964417 25.2115744,23.0132053 23.7339397,24.6081594 C22.9080643,25.3739252 22.5010088,25.8484182 21.4327825,26.1443891 C20.9551394,26.2759317 20.7951408,26.4521048 20.8798459,26.7433777 C20.9598453,27.0323016 21.1951374,27.093375 21.6704276,26.9524365 Z"></path>
                    <path d="M40.3855651,13.8569006 C40.5596813,13.7770355 40.6349748,13.6220031 40.5902692,13.443481 C40.5432108,13.2508651 40.4632115,13.065296 40.3808592,12.882076 C39.4679257,10.8337698 38.260877,8.97807947 36.7738306,7.29151539 C35.0067866,5.28549071 32.924451,3.69053666 30.5738825,2.43618399 C30.1127099,2.19189058 29.8656531,2.21538033 29.7315366,2.49255939 C29.6138905,2.73685279 29.7268307,2.905979 30.1809446,3.14792342 C32.0656347,4.14623782 33.7879732,5.36065791 35.2185495,6.86165296 C37.1879448,8.75492684 38.6326386,10.9300777 39.7032178,13.3612669 C39.759688,13.4928095 39.8255698,13.6267011 39.9102749,13.7418009 C40.027921,13.9062291 40.2043901,13.9414637 40.3855651,13.8569006 Z"></path>
                    <path d="M30.978585,6.55393723 C29.5291853,5.61434722 27.9786101,4.89556085 26.3198004,4.40697405 C26.2986241,4.39992712 26.2774478,4.3928802 26.2562715,4.38818225 C26.0092148,4.32945787 25.7692168,4.32945787 25.6774529,4.6183818 C25.5856889,4.90495675 25.7715697,5.05764013 26.0092148,5.14690118 C26.5950922,5.36300689 27.1903814,5.55092489 27.7692001,5.78112444 C28.6938982,6.14756455 29.5644792,6.62205751 30.4021192,7.15527484 C30.5338828,7.23983794 30.6656464,7.32675002 30.8068217,7.38547439 C30.9879967,7.45829262 31.1691716,7.43010492 31.2797589,7.25393179 C31.3926992,7.07306071 31.3574053,6.89218964 31.21623,6.72541241 C31.1432895,6.66903701 31.0632901,6.60796366 30.978585,6.55393723 Z"></path>
                    <path d="M6.55055408,24.6199043 C7.19760749,26.3464009 8.12230564,27.9131673 9.28464885,29.3014115 C9.34817773,29.3648338 9.3881774,29.4047664 9.42817706,29.444699 C9.60935202,29.6161742 9.81405619,29.7054352 10.0164074,29.5057723 C10.2069941,29.3155054 10.1528769,29.1040976 9.99523114,28.9067837 C9.78817405,28.6460475 9.58346988,28.3806133 9.38111863,28.1151791 C8.44936172,26.8890141 7.73877943,25.5454004 7.21407794,24.1007808 C7.1764312,23.9974259 7.12937277,23.894071 7.06584389,23.8048099 C6.94113905,23.6286368 6.76702286,23.5628655 6.56937745,23.6615224 C6.38349666,23.7531325 6.33643823,23.9293056 6.38349666,24.1172236 C6.42349632,24.2840008 6.4870252,24.453127 6.55055408,24.6199043 Z"></path>
                    <path d="M28.9338962,12.0716796 C26.5809747,9.82136151 23.9809965,8.58110269 20.908081,8.38848674 C20.8304346,8.38378879 20.7527882,8.37909084 20.6751418,8.38613776 C20.4398496,8.40727854 20.2586747,8.50828446 20.2539439,8.76902069 C20.2516159,9.02505897 20.4163204,9.14955465 20.6563184,9.17069542 C21.1669024,9.21532595 21.6774863,9.2576075 22.1833644,9.3515665 C24.4374632,9.77203303 26.3903881,10.7750454 28.039786,12.3676505 C28.4727236,12.785768 28.8774261,13.2297243 29.2562464,13.6995193 C29.4233039,13.9085781 29.6209493,14.007235 29.8562414,13.8122701 C30.0868277,13.6220031 30.0397693,13.4011995 29.8703589,13.1968386 C29.5221266,12.7693252 29.1621296,12.3441607 28.9338962,12.0716796 Z"></path>
                    <path d="M12.3010942,23.1799826 C13.3410855,24.4202414 14.2116664,25.8178815 15.5716551,26.7739144 C16.6045876,27.5020966 17.7222253,27.9906834 18.9975088,28.0705486 C19.2375067,28.0846424 19.4327992,28.0212201 19.4845635,27.7722288 C19.5386807,27.5114925 19.3951525,27.3470643 19.1433899,27.2859909 C19.0022146,27.2531053 18.8586864,27.2296155 18.7151582,27.2108237 C17.0234076,27.0182078 15.7575359,26.0856647 14.6963683,24.8430569 C13.8422578,23.8447425 13.0775583,22.7712609 12.2069773,21.7870404 C11.4140428,20.8897319 10.4587567,20.1944353 9.2352375,19.9759806 C8.9834749,19.9313501 8.72465354,19.8937665 8.52936105,20.0394029 C8.37877408,20.1779925 8.33877441,20.314233 8.38583284,20.4645674 C8.43289127,20.6149018 8.53877274,20.7229547 8.69641848,20.7323506 C10.3928749,20.8310075 11.3222789,22.012542 12.3010942,23.1799826 Z"></path>
                    <path d="M5.00939051,27.9977304 C5.18115378,27.9037714 5.2164476,27.7416921 5.1835067,27.565519 C5.16938917,27.4903518 5.13409535,27.4175335 5.0964486,27.3494133 C4.68233442,26.6047882 4.39292508,25.8131836 4.18351506,24.9886933 C4.11763326,24.7303061 4.01645764,24.5118514 3.69410739,24.5635289 C3.44469772,24.6034614 3.33646333,24.83601 3.41175682,25.1789603 C3.6070493,26.0786178 3.95057584,26.9195508 4.3882104,27.7275982 C4.42586598,27.7957185 4.47292441,27.8567919 4.50115947,27.9014224 C4.66586397,28.0564547 4.83056847,28.0940383 5.00939051,27.9977304 Z"></path>
                    <path d="M20.9057281,5.89152627 C20.6751418,5.917365 20.5339665,6.0395117 20.5269077,6.27910715 C20.5222019,6.50225978 20.6422009,6.64084931 20.8586696,6.67138598 C21.2351371,6.72306343 21.6139574,6.75360011 21.988072,6.80292859 C23.3245314,6.97910171 24.6021677,7.36198464 25.8398044,7.89520198 C25.971568,7.95157738 26.1103904,8.00325483 26.2515657,8.02439561 C26.420976,8.05023433 26.5597984,7.97976508 26.6233273,7.8082899 C26.6868562,7.6391637 26.6656799,7.4794334 26.5150929,7.32440104 C26.4280348,7.28211949 26.3198004,7.22339512 26.2068602,7.17641562 C24.5880502,6.46937413 22.9010055,6.0301158 21.1363144,5.89622422 C21.0633738,5.89152627 20.9833745,5.88447934 20.9057281,5.89152627 Z"></path>
                    <path d="M0.562368894,26.0739198 C0.383546861,26.1937175 0.33413551,26.3675417 0.388252704,26.5719025 C0.557663051,27.2319645 0.809425651,27.8638388 1.06589409,28.4910151 C1.76941762,30.2128138 2.69176284,31.8101169 3.84469437,33.2688304 C4.17410338,33.6845989 4.5929234,34.0298983 4.97174376,34.4080832 C4.96703792,34.4127812 4.964685,34.4151302 4.95997916,34.4198281 C5.29174109,34.7510336 5.62115009,35.0822391 5.95291202,35.4110956 C6.08467563,35.5426382 6.23290968,35.6741808 6.40937879,35.4980077 C6.57643622,35.3335794 6.57173037,35.1339165 6.41408463,34.9600924 C6.05408765,34.5654646 5.67526729,34.1896286 5.31762322,33.7903028 C3.90822325,32.2164895 2.80235015,30.4500603 1.95294549,28.5215518 C1.66118323,27.8567919 1.42118524,27.1755891 1.19530477,26.4873394 C1.14589342,26.339354 1.10824668,26.1819727 0.971777233,26.0856647 C0.842366551,25.9964036 0.694132498,25.9870077 0.562368894,26.0739198 Z"></path>
                    <path d="M20.4822022,11.3082627 C19.230448,10.4015583 17.8398714,9.78612688 16.2869432,9.55357836 C16.0375335,9.51599476 15.8281235,9.59820888 15.7740063,9.86129409 C15.7175362,10.1314262 15.8892995,10.2794116 16.1387091,10.3240422 C17.5410504,10.5777315 18.8257455,11.1015529 19.9810299,11.940137 C20.188087,12.0904714 20.428085,12.123357 20.5998483,11.8767147 C20.7433765,11.6700049 20.6727889,11.4773889 20.4822022,11.3082627 Z"></path>
                    <path d="M4.13410371,21.1833538 C3.64940189,21.636706 3.3223458,22.294419 3.17881759,23.046091 C3.11058287,23.3984372 3.21646433,23.6027981 3.47293277,23.6544755 C3.72234245,23.703804 3.88469404,23.5511206 3.96704629,23.1917274 C4.29410237,21.7612016 5.24468266,20.9461073 6.70349398,20.8427524 C7.04231467,20.8192626 7.2093721,20.6783241 7.19054873,20.4199369 C7.16701951,20.1122212 6.95290366,20.0441009 6.69643521,20.0464499 C5.72232572,20.0581947 4.89645028,20.410541 4.13410371,21.1833538 Z"></path>
                    <path d="M18.7786871,6.87574681 C19.1292724,6.83111629 19.3128002,6.65729213 19.2657418,6.40830078 C19.2069188,6.0958871 18.9716266,6.04420965 18.7057465,6.0770953 C17.5175211,6.22273175 16.352825,6.47642105 15.2375402,6.92272631 C15.1457763,6.95796094 15.0610711,7.01433634 15.0116598,7.04017506 C14.8516611,7.21399922 14.8281319,7.37372952 14.91519,7.53815777 C15.0234244,7.74016963 15.2093052,7.76600835 15.4069506,7.704935 C15.8328294,7.5733924 16.2516494,7.41601107 16.6798811,7.29386437 C17.3692871,7.09655047 18.0704577,6.96500786 18.7786871,6.87574681 Z"></path>
                    <path d="M27.3762622,1.88417485 C27.5480254,1.88182588 27.6727303,1.78081995 27.7244946,1.61874067 C27.771553,1.47075525 27.7292004,1.33216572 27.5809663,1.18652927 C27.5197904,1.16069054 27.4209677,1.11136207 27.3174391,1.07612744 C24.4845217,0.136537424 21.5763107,-0.161782406 18.6092767,0.0801620234 C18.5881004,0.0825109985 18.5645712,0.0872089485 18.5433949,0.0895579236 C18.1104574,0.145933325 17.9551645,0.275126952 17.9833996,0.557003956 C18.0116346,0.831834036 18.1928096,0.932839963 18.6351588,0.890558412 C21.5057231,0.622775257 24.3080526,0.951631763 27.051559,1.82779945 C27.1527346,1.8606851 27.2656749,1.88417485 27.3762622,1.88417485 Z"></path>
                    <path d="M13.6540241,9.4831091 C13.776376,9.49720296 13.8987279,9.50894783 14.0210798,9.50424988 C14.2375486,9.49485398 14.3810768,9.38445215 14.3975472,9.15895055 C14.4140177,8.94049587 14.3081362,8.78546352 14.0940204,8.74318197 C13.8446107,8.69385349 13.5881423,8.66331682 13.3316738,8.64452502 C10.6681667,8.44956009 8.2281871,9.10492412 6.00232337,10.5730335 C5.94585326,10.6082681 5.89644191,10.6552476 5.86820685,10.6787374 C5.66820852,10.8619575 5.59762088,11.0569224 5.7529137,11.2589342 C5.92467697,11.4797379 6.14349866,11.4327584 6.34820283,11.2965178 C7.122314,10.7867903 7.93642484,10.3545788 8.81406455,10.0445141 C10.3858161,9.49015603 11.9952144,9.2857952 13.6540241,9.4831091 Z"></path>
                    <path d="M9.96229024,6.81467346 C10.0658188,6.77474088 10.1599356,6.71131856 10.2540525,6.65259418 C12.7434434,5.05059321 15.4728324,4.23314989 18.4281018,4.10160729 C19.8845602,4.03583599 21.3245481,4.16033167 22.7574773,4.41402097 C22.8892409,4.43751072 23.0210045,4.46569842 23.1527681,4.48214125 C23.4021778,4.51267792 23.6115878,4.45160457 23.6609991,4.17442552 C23.7080576,3.90429339 23.545706,3.75630796 23.2986492,3.69993256 C22.5245381,3.52141046 21.7386623,3.41805555 20.9504336,3.34993528 C17.9645762,3.093897 15.0728357,3.48852481 12.3010942,4.6559654 C11.3928665,5.03649936 10.538756,5.51803924 9.71523348,6.05125657 C9.65876337,6.0864912 9.60699909,6.12642377 9.55994066,6.15930942 C9.4211183,6.31434178 9.36464818,6.47877003 9.47288257,6.65729213 C9.58346988,6.84051219 9.76229191,6.89218964 9.96229024,6.81467346 Z"></path>
                    <path d="M16.8939969,1.03384589 C17.2469352,0.958678688 17.3481108,0.599285507 17.1151716,0.373783903 C16.9904667,0.246939251 16.8375268,0.242241301 16.6798811,0.275126952 C15.2540107,0.554654981 13.8704928,0.979819463 12.5363863,1.55531835 C12.3175646,1.64927735 12.1763894,1.80665868 12.2728591,2.05330106 C12.3740348,2.31638626 12.5881506,2.39155346 12.846972,2.28584959 C14.1551963,1.74088738 15.5057733,1.32746777 16.8939969,1.03384589 Z"></path>
                    <path d="M1.67294784,12.320671 C0.865895766,14.0706574 0.310606295,15.893462 0.0164911091,17.7984807 C0,17.9065336 -0.00939102728,18.0239823 0.0141381876,18.1296862 C0.0776670678,18.4209591 0.428252369,18.5149181 0.642368225,18.3082083 C0.738838006,18.2212963 0.771778907,18.1014985 0.790602279,17.9793518 C1.08001162,16.1330574 1.61177188,14.3595813 2.39294181,12.6589234 C2.50588204,12.412281 2.51529373,12.1750345 2.24000192,12.0223511 C2.02823898,11.9025534 1.81412313,12.0106062 1.67294784,12.320671 Z"></path>
                    <path d="M6.47290767,5.82105702 C5.41644592,6.85225706 4.58821756,7.88110813 3.91292909,9.02975692 C3.86822358,9.1072731 3.82351808,9.1824403 3.78351841,9.26230545 C3.6729311,9.4831091 3.70116616,9.68277198 3.91763494,9.81431459 C4.1435154,9.95055514 4.3293962,9.85424716 4.4611598,9.65693326 C4.70351071,9.29754008 4.91762657,8.91700612 5.17174209,8.56700884 C6.64467094,6.53984338 8.41171498,4.8438834 10.7011076,3.75161001 C10.9316939,3.64120818 11.1105159,3.48147788 10.9975757,3.20429883 C10.8752238,2.905979 10.6305199,2.9247708 10.3787573,3.0281257 C9.37170695,3.44859223 8.48700847,4.06637266 7.64701549,4.7499244 C7.19760749,5.11401553 6.76466994,5.49689846 6.47290767,5.82105702 Z"></path>
                </g>
                <g transform="translate(0, 11)" fill="#BEFBFF" id="Path">
                    <path d="M22.905667,10.4278537 C22.3575299,11.8657487 21.2517231,12.7134267 19.7550707,12.9465989 C18.8184713,13.0947604 18.0463131,12.6332738 17.3480342,12.0454856 C17.2360236,11.9507594 17.1383122,11.8341733 17.0358344,11.7297316 C16.3923692,11.1030814 15.958626,10.3136965 15.446237,9.58746229 C15.2960951,9.37372114 15.1245044,9.24499067 14.8790344,9.39072327 C14.6407139,9.53159813 14.6025826,9.77205693 14.7455749,9.98822696 C15.4533866,11.0666483 16.0849358,12.2057915 17.1692938,12.9708877 C18.7803401,14.107602 20.377087,14.0833132 22.0381805,12.8737326 C23.9518937,11.4795573 24.5405452,8.94138107 23.4704864,6.74324757 C22.6601969,5.07946697 21.3685001,3.91846386 19.8098844,3.02706608 C19.5906296,2.90076449 19.3618419,2.88619123 19.2188497,3.13636554 C19.0567918,3.422973 19.2188497,3.62699865 19.4524037,3.76544462 C20.3627878,4.29736864 21.1802269,4.9507365 21.8546738,5.76441022 C22.9819295,7.12943898 23.5777306,8.66691799 22.905667,10.4278537 Z"></path>
                    <path d="M13.0106021,3.6950072 C15.6797911,4.60583599 17.6149531,6.39591819 18.9876788,8.86122813 C19.1378207,9.13083346 19.2712802,9.41015429 19.4071228,9.68704624 C19.526283,9.92993392 19.6859577,10.0902398 19.9695591,9.9736537 C20.2197955,9.87164088 20.2841421,9.64332646 20.1459162,9.33243023 C19.6645089,8.24429343 19.0210437,7.26059833 18.2727175,6.34734065 C18.0701451,6.09959522 17.8580399,5.86156529 17.7174309,5.6939728 C16.4162012,4.4382435 15.0315594,3.51041256 13.4205132,2.94934202 C13.2703713,2.89590673 13.1154631,2.85218695 12.9605548,2.83275594 C12.7675152,2.80846717 12.5959245,2.87404684 12.5244283,3.07807249 C12.4529322,3.28209814 12.5363444,3.43997513 12.7031687,3.54927459 C12.7961137,3.61242539 12.9033579,3.65614517 13.0106021,3.6950072 Z"></path>
                    <path d="M17.2717716,2.45628003 C17.3504174,2.5 17.4290631,2.54857735 17.5148585,2.575295 C17.7055148,2.63115916 17.8794888,2.59472601 17.9772001,2.40041587 C18.0677619,2.22067898 18.0463131,2.04337098 17.8842552,1.8636341 C17.765095,1.79319667 17.6221027,1.70089935 17.474344,1.61831754 C15.8704474,0.729348635 14.1926715,0.0881251619 12.3433048,0.00554335104 C12.0382546,-0.00902990971 11.7332045,0.00554335104 11.4305375,0.0444053797 C11.1826842,0.075980778 10.9920279,0.190137987 11.0039439,0.481603202 C11.0158599,0.775497294 11.2112827,0.872652366 11.4686688,0.855650228 C13.5849543,0.714775374 15.4676859,1.4337229 17.2717716,2.45628003 Z"></path>
                    <path d="M12.3075567,7.42090419 C12.6269061,7.65164749 12.9343395,7.90667955 13.184576,8.22486241 C13.3919148,8.48960998 13.6921985,8.54547415 13.861406,8.36330839 C14.0782777,8.13013622 13.9900991,7.89696405 13.813742,7.68565177 C13.720797,7.57149456 13.6087864,7.47191061 13.5039254,7.36746891 C12.3099399,6.19432142 10.8704845,5.57738671 9.23322299,5.4219386 C7.59119512,5.26649048 6.04687863,5.62110649 4.59312391,6.40077594 C4.5335438,6.43235134 4.47158048,6.46392674 4.41676678,6.50035989 C4.19989517,6.64366362 4.03307086,6.81854275 4.19274556,7.0954347 C4.34050423,7.35289564 4.56690866,7.36261115 4.80761231,7.22659405 C5.43439508,6.87926467 6.08262669,6.5829417 6.7832888,6.42506471 C8.7565821,5.98058026 10.620248,6.2064658 12.3075567,7.42090419 Z"></path>
                    <path d="M2.08122641,8.33416187 L1.93823414,8.47989448 C0.856259315,9.72833715 0.312888699,11.2196675 0.0602690261,12.8372994 C0.0245209592,13.063185 0.0102217325,13.2939283 0.00068891464,13.5246716 C-0.0088439032,13.7675593 0.0793346618,13.9764427 0.341487152,13.9983025 C0.613172461,14.0201624 0.756164728,13.8282812 0.784763182,13.5732491 C0.851492906,12.9903187 0.942054676,12.412246 1.10172937,11.8463177 C1.40916275,10.7460365 1.87865403,9.73805265 2.65081227,8.89523241 C2.83670222,8.69120676 2.94394642,8.47017897 2.72707482,8.22729129 C2.5602505,8.04269665 2.32193006,8.08884531 2.08122641,8.33416187 Z"></path>
                    <path d="M3.27044543,4.78071512 C3.45871858,5.02117393 3.67797339,4.97259639 3.89722821,4.8147194 C5.10074646,3.95246814 6.43772416,3.42783075 7.87717965,3.16308318 C8.48727999,3.05135485 9.10452995,2.98577517 9.72892952,2.99549068 C9.83140731,2.99791956 9.9315019,2.99791956 10.0339797,2.9930618 C10.2985154,2.98091742 10.4725117,2.84490032 10.4725117,2.57043724 C10.4748725,2.30568967 10.2865994,2.17938808 10.0482789,2.16967257 C9.71224708,2.15752819 9.37144885,2.16481482 9.03541702,2.18910359 C7.07403975,2.32997844 5.24850513,2.89833561 3.60171085,4.01561893 C3.5182987,4.07391198 3.43726974,4.13706277 3.38483925,4.1759248 C3.19179969,4.37266382 3.10123792,4.56454509 3.27044543,4.78071512 Z"></path>
                </g>
            </g>
        </g>
    </g>
</svg>