<?xml version="1.0" encoding="UTF-8"?>
<svg width="39px" height="44px" viewBox="0 0 39 44" version="1.1" xmlns="http://www.w3.org/2000/svg" xmlns:xlink="http://www.w3.org/1999/xlink">
    <title>Group</title>
    <g id="Page-1" stroke="none" stroke-width="1" fill="none" fill-rule="evenodd">
        <g id="Artboard" transform="translate(-529, -561)">
            <g id="Group" transform="translate(530, 562)">
                <g transform="translate(13.7287, 2.5861)" id="Path" stroke="#892955" stroke-linecap="round" stroke-linejoin="round">
                    <line x1="0.119338524" y1="15.451952" x2="0.119338524" y2="0"></line>
                    <path d="M0.181394556,18.0153435 L0.181394556,20.3138035 C0.181394556,20.402114 0.226743195,20.4832642 0.30073308,20.5286128 L8.91458771,25.8153094 C9.07211456,25.9107802 9.07450134,26.1375234 8.92174803,26.2401546 L5.71870205,28.3596068 C5.5611752,28.4646247 5.57072228,28.6985282 5.73540944,28.7892254 L14.3206228,33.5914076"></path>
                </g>
                <g id="Path">
                    <g transform="translate(0.0549, 0.2041)" stroke-linecap="round" stroke-linejoin="round">
                        <path d="M36.4841734,30.603171 L18.5284992,20.2326533 C18.4497358,20.1873047 18.4020003,20.1037677 18.4020003,20.0154572 L18.4020003,10.5495255" stroke="#FFFFFF"></path>
                        <line x1="18.134682" y1="0" x2="18.134682" y2="6.08387793" stroke="#FFFFFF"></line>
                        <line x1="36.6249929" y1="25.7771211" x2="28.9324317" y2="21.337728" stroke="#FFFFFF"></line>
                        <path d="M26.1327499,19.9319202 L22.6719327,17.8434961 C22.5955561,17.7981474 22.5502074,17.7169972 22.5502074,17.6286867 L22.5502074,2.63260783" stroke="#892955"></path>
                        <path d="M36.5629369,20.5858953 L27.6841507,15.6524408 C27.6030005,15.6070921 27.5552651,15.5235552 27.5552651,15.4328579 L27.5552651,5.63516508" stroke="#FFFFFF"></path>
                        <path d="M36.4388248,15.4567256 L31.6151617,12.4661022 C31.5411718,12.4207535 31.4958232,12.3396033 31.4958232,12.2512928 L31.4958232,7.69972154" stroke="#FFFFFF"></path>
                        <path d="M9.35136671,5.32249815 L9.35136671,25.070637 C9.35136671,25.1589475 9.39910212,25.2424845 9.47547877,25.2878332 L16.0438711,29.1567881" stroke="#FFFFFF"></path>
                        <line x1="32.3717679" y1="33.347957" x2="26.2425413" y2="29.7200659" stroke="#FFFFFF"></line>
                        <path d="M13.6308462,34.3169858 L4.50144911,28.8488947 C4.42507246,28.8035461 4.37972382,28.7223959 4.37972382,28.6316986 L4.37972382,18.3709723 C4.37972382,18.1800307 4.17684833,18.0583054 4.00977439,18.1490027 L0,20.2684549" stroke="#892955"></path>
                        <line x1="4.84753083" y1="7.69972154" x2="4.84753083" y2="13.8933909" stroke="#FFFFFF"></line>
                        <line x1="17.4544525" y1="36.3624481" x2="22.586009" y2="39.4891175" stroke="#FFFFFF"></line>
                    </g>
                    <path d="M0,11.3407399 L0,30.6592601 C0,31.2607263 0.319827243,31.814457 0.840143206,32.1151901 L17.5714042,41.7744502 C18.0917202,42.0751833 18.7337614,42.0751833 19.2540774,41.7744502 L35.9853384,32.1151901 C36.5056544,31.814457 36.8254816,31.2583395 36.8254816,30.6592601 L36.8254816,11.3407399 C36.8254816,10.7392737 36.5056544,10.185543 35.9853384,9.88480991 L19.2540774,0.22554981 C18.7337614,-0.0751832699 18.0917202,-0.0751832699 17.5714042,0.22554981 L0.840143206,9.88480991 C0.319827243,10.185543 0,10.7392737 0,11.3407399 Z" stroke="#FFFFFF"></path>
                </g>
            </g>
        </g>
    </g>
</svg>