<?xml version="1.0" encoding="UTF-8"?>
<svg width="44px" height="50px" viewBox="0 0 44 50" version="1.1" xmlns="http://www.w3.org/2000/svg" xmlns:xlink="http://www.w3.org/1999/xlink">
    <title>Group</title>
    <g id="Page-1" stroke="none" stroke-width="1" fill="none" fill-rule="evenodd">
        <g id="Artboard" transform="translate(-534, -895)">
            <g id="Group" transform="translate(535, 896)">
                <path d="M41.1588022,11.3779492 L21.8411978,0.224591652 C21.3212341,-0.0748638838 20.6787659,-0.0748638838 20.1588022,0.224591652 L0.838475499,11.3779492 C0.318511797,11.680127 0,12.2354809 0,12.834392 L0,35.1438294 C0,35.7454628 0.318511797,36.3008167 0.838475499,36.6002722 L20.1588022,47.7536298 C20.6787659,48.0558076 21.3212341,48.0558076 21.8411978,47.7536298 L41.1588022,36.6002722 C41.6814882,36.3008167 42,35.7454628 42,35.1438294 L42,12.834392 C42,12.2354809 41.6814882,11.680127 41.1588022,11.3779492 Z" id="Path" stroke="#FFFFFF"></path>
                <g transform="translate(0.2586, 0.8208)" id="Path" stroke="#FFFFFF">
                    <line x1="20.6787659" y1="47.0417423" x2="20.6787659" y2="35.1370236"></line>
                    <line x1="10.8920145" y1="29.0907441" x2="0" y2="34.9355717"></line>
                    <line x1="41.4582577" y1="34.9355717" x2="30.5880218" y2="29.0989111"></line>
                    <line x1="20.7822142" y1="11.6624319" x2="20.7822142" y2="0"></line>
                    <line x1="41.4555354" y1="12.1034483" x2="30.8575318" y2="17.7658802"></line>
                    <line x1="10.6170599" y1="17.8039927" x2="0" y2="12.1034483"></line>
                </g>
                <g transform="translate(10.8103, 12.4829)" id="Path" stroke="#FF9B71">
                    <line x1="10.1270417" y1="23.2734211" x2="10.1270417" y2="11.5728767"></line>
                    <path d="M20.3058076,6.10372967 L10.1243194,11.5429311 L0.0653357532,6.1418422 C0.179673321,5.72532677 0.454627949,5.36053548 0.841197822,5.13730499 L9.34845735,0.22623421 C9.62068966,0.068339473 9.92558984,-0.00516324932 10.2277677,0.000281396781 C10.5054446,0.00572604288 10.7831216,0.0819510883 11.030853,0.22623421 L19.5381125,5.13730499 C19.7259528,5.24619791 19.8838475,5.38775871 20.0145191,5.55109809 C20.03902,5.58104365 20.0607985,5.61371152 20.0825771,5.6463794 C20.1206897,5.70082586 20.1560799,5.75799465 20.1860254,5.81516343 C20.2105263,5.86144292 20.2323049,5.90772241 20.2513612,5.95672423 C20.2676951,5.99211443 20.2813067,6.03022695 20.292196,6.06833947 C20.2976407,6.07922877 20.3030853,6.09284038 20.3058076,6.10372967 Z"></path>
                    <path d="M20.376588,6.59374782 L20.376588,16.4186117 C20.376588,16.7942923 20.2540835,17.1481943 20.0335753,17.4367605 C19.9029038,17.6109892 19.7341198,17.760717 19.5381125,17.8750545 L11.030853,22.7861253 C10.7504537,22.9494647 10.4401089,23.0229674 10.1270417,23.0120781 C9.85753176,23.0011888 9.5907441,22.9249638 9.34845735,22.7861253 L0.841197822,17.8750545 C0.639745917,17.7579946 0.470961887,17.6055446 0.337568058,17.4258712 C0.122504537,17.1400273 0,16.7888476 0,16.4186117 L0,6.59374782 C0,6.43857541 0.0217785844,6.28612532 0.0653357532,6.1418422 L10.1243194,11.5429311 L20.3058076,6.10372967 C20.3085299,6.11189664 20.3112523,6.12278593 20.3139746,6.1309529 C20.3548094,6.28068067 20.376588,6.43585308 20.376588,6.59374782 Z"></path>
                </g>
            </g>
        </g>
    </g>
</svg>