<?xml version="1.0" encoding="UTF-8"?>
<svg width="139px" height="24px" viewBox="0 0 139 24" version="1.1" xmlns="http://www.w3.org/2000/svg" xmlns:xlink="http://www.w3.org/1999/xlink">
    <title>Group</title>
    <g id="Page-1" stroke="none" stroke-width="1" fill="none" fill-rule="evenodd">
        <g id="Artboard" transform="translate(-470, -81)" fill="#FFFFFF">
            <g id="Group" transform="translate(470, 81)">
                <polygon id="Fill-2" points="3.16666061 5.02682433 15 16.6918704 15 23 11.8333394 23 11.8333394 17.9730414 0 6.30812959 0 0 3.16666061 0"></polygon>
                <g id="Group-15" transform="translate(21, 0)">
                    <path d="M14.75,6.88562379 L7.12153051,6.88562379 L7.12153051,18.3478967 C7.12153051,20.6893902 8.67727695,21.9580365 11.5697026,21.9580365 C12.8214966,21.9580365 14.1581758,21.9053478 14.75,21.8164355 L14.75,23.7893822 C14.2086588,23.8947597 12.5005406,24 11.4517332,24 C7.0709157,24 4.90581436,22.1510914 4.90581436,18.4180111 L4.90581436,6.88562379 L0,6.88562379 L0,4.93133769 L4.90581436,4.93133769 L4.90581436,0 L7.12153051,0 L7.12153051,4.93133769 L13.5983812,4.93133769" id="Fill-3"></path>
                    <path d="M24.4050717,13.0019614 L35.1275127,13.0019614 C35.1275127,9.00535806 33.1429957,6.59577937 29.8357388,6.59577937 C26.4416736,6.59577937 24.4050717,8.98794663 24.4050717,13.0019614 L24.4050717,13.0019614 Z M37.3554995,19.0427754 C36.7285815,22.0451589 33.8740836,24 30.0971128,24 C25.049487,24 22.125,20.8745123 22.125,15.5160087 L22.125,12.7757488 C22.125,7.81730001 25.1882445,4.57142857 29.8357388,4.57142857 C34.674618,4.57142857 37.4423077,7.78261317 37.4423077,13.4033765 L37.4423077,14.8871568 L24.4050717,14.8871568 L24.4050717,15.5334201 C24.4050717,19.4616019 26.6156969,21.9570135 30.0971128,21.9570135 C32.656056,21.9570135 34.5184989,20.8745123 35.0927894,19.0427754 L37.3554995,19.0427754 Z" id="Fill-5"></path>
                    <path d="M44.25,4.88156085 L46.4141302,4.88156085 L46.4141302,8.22242759 L46.6396897,8.22242759 C47.6614527,5.87959362 49.8428505,4.57142857 52.7330341,4.57142857 C56.8013344,4.57142857 59,6.9645869 59,11.3732695 L59,23.4285714 L56.7322636,23.4285714 L56.7322636,11.9421361 C56.7322636,8.3083145 55.2607306,6.60292247 52.1278547,6.60292247 C48.786687,6.60292247 46.5189506,8.96293382 46.5189506,12.4068649 L46.5189506,23.4285714 L44.25,23.4285714 L44.25,4.88156085 Z" id="Fill-7"></path>
                    <polygon id="Fill-9" points="66.9423077 22.2486395 78.3849222 7.29562799 78.3849222 7.08619059 66.9596004 7.08619059 66.9596004 5.14285714 81.1077073 5.14285714 81.1077073 6.91045419 69.699543 21.8460012 69.699543 22.0566666 79.4636877 22.0566666 81.125 22.0566666 81.125 24 66.9423077 24"></polygon>
                    <path d="M90.2131551,24 L87.9329622,23.9768394 L87.9326923,6.91023564 L87.9326923,5.04711118 L90.1491942,5.04711118 L90.1491942,9.86492217 L90.3920837,9.86492217 C91.0330422,6.48827461 93.4912192,4.57142857 97.1279501,4.57142857 C98.2016568,4.57142857 99.2580913,4.73040057 99.8461538,4.9933896 L99.8461538,7.50857336 C98.9807924,7.19186276 97.7861808,6.98149895 96.7815627,6.98149895 C92.7639,6.98149895 90.2010106,10.2868832 90.2010106,15.4752634 L90.2131551,24 Z" id="Fill-11"></path>
                    <path d="M104.39685,13.1848831 L104.39685,15.3864093 C104.39685,19.4575311 106.574081,21.955181 110.058303,21.955181 C113.541303,21.955181 115.718535,19.4575311 115.718535,15.3864093 L115.718535,13.1848831 C115.718535,9.11389749 113.541303,6.61502222 110.058303,6.61502222 C106.574081,6.61502222 104.39685,9.11389749 104.39685,13.1848831 M102.115385,15.6837583 L102.115385,12.8876702 C102.115385,7.82021149 105.216467,4.57142857 110.058303,4.57142857 C114.900139,4.57142857 118,7.82021149 118,12.8876702 L118,15.6837583 C118,20.7498556 114.900139,24 110.058303,24 C105.216467,24 102.115385,20.7498556 102.115385,15.6837583" id="Fill-13"></path>
                </g>
            </g>
        </g>
    </g>
</svg>