<?xml version="1.0" encoding="UTF-8"?>
<svg width="44px" height="44px" viewBox="0 0 44 44" version="1.1" xmlns="http://www.w3.org/2000/svg" xmlns:xlink="http://www.w3.org/1999/xlink">
    <title>Group</title>
    <g id="Page-1" stroke="none" stroke-width="1" fill="none" fill-rule="evenodd">
        <g id="Artboard" transform="translate(-57, -227)">
            <g id="Group" transform="translate(58, 228)">
                <g transform="translate(1.5, 1.5)" id="Path" stroke="#FFFFFF">
                    <path d="M3.83594927,31.9740017 L3.83594927,7.02599828 C3.83594927,5.26332856 5.26572349,3.83355434 7.02839322,3.83355434 L31.9763966,3.83355434 C33.7390664,3.83355434 35.1688406,5.26332856 35.1688406,7.02599828 L35.1688406,31.9740017 C35.1688406,33.7366714 33.7390664,35.1664457 31.9763966,35.1664457 L7.02839322,35.1664457 C5.26572349,35.1664457 3.83594927,33.7366714 3.83594927,31.9740017 Z"></path>
                    <path d="M9.82567343,37.0320974 L0.245946665,13.9976444 C-0.431819004,12.3690909 0.339349001,10.5010442 1.96790255,9.82567343 L25.0023556,0.245946665 C26.6309091,-0.431819004 28.4989558,0.339349001 29.1743266,1.96790255 L38.7540533,25.0023556 C39.431819,26.6309091 38.660651,28.4989558 37.0320974,29.1743266 L13.9976444,38.7540533 C12.3714858,39.431819 10.5034391,38.660651 9.82567343,37.0320974 Z"></path>
                    <path d="M0.262711187,25.0550441 L9.7777748,1.9942468 C10.4507506,0.365693249 12.3164024,-0.41265955 13.9449559,0.260316255 L37.0057532,9.77537987 C38.6343068,10.4483557 39.4126596,12.3140075 38.7396837,13.942561 L29.2246201,37.0033583 C28.5516443,38.6319118 26.6859925,39.4102646 25.057439,38.7372888 L1.99664173,29.2222252 C0.365693249,28.5516443 -0.410264619,26.6859925 0.262711187,25.0550441 Z"></path>
                </g>
                <path d="M18.7248039,41.0584989 L0.943270972,23.2761995 C-0.314423657,22.0184507 -0.314423657,19.9833599 0.943270972,18.7256111 L18.7248039,0.943311635 C19.9824985,-0.314437212 22.0175015,-0.314437212 23.2751961,0.943311635 L41.056729,18.7256111 C42.3144237,19.9833599 42.3144237,22.0184507 41.056729,23.2761995 L23.2751961,41.0584989 C22.0175015,42.3138337 19.9800845,42.3138337 18.7248039,41.0584989 Z" id="Path" stroke="#E84855"></path>
            </g>
        </g>
    </g>
</svg>